<?xml version="1.0" encoding="utf-8"?>
<!-- Generator: Adobe Illustrator 16.0.0, SVG Export Plug-In . SVG Version: 6.00 Build 0)  -->
<!DOCTYPE svg PUBLIC "-//W3C//DTD SVG 1.1//EN" "http://www.w3.org/Graphics/SVG/1.1/DTD/svg11.dtd">
<svg version="1.1" id="Layer_1" xmlns="http://www.w3.org/2000/svg" xmlns:xlink="http://www.w3.org/1999/xlink" x="0px" y="0px"
	 width="156.5px" height="21.31px" viewBox="0 0 156.5 21.31" enable-background="new 0 0 156.5 21.31" xml:space="preserve">
<g>
	<g>
		<g>
			<path fill="#FFFFFF" d="M99.693,4.129l-3.957,0.523c0,0,0.006,1.59,0.012,2.016c-0.418,0-1.938,0-1.938,0l0.023,2.064
				c0,0,1.527,0,1.939,0c0.004,0.5,0.045,5.459,0.045,5.459c0.021,1.954,1.027,3.078,2.768,3.078h5.678l0.455-2.536l-0.469,0.173
				c-0.342,0.129-1.045,0.217-1.713,0.217h-1.877c-0.365,0-0.549-0.094-0.553-0.617c0,0-0.047-4.582-0.057-5.774
				c0.49,0,3.025,0,3.025,0l0.564-2.064c0,0-3.139,0-3.611,0c-0.004-0.444-0.02-2.58-0.02-2.58L99.693,4.129z"/>
		</g>
	</g>
	<g>
		<g>
			<path fill="#FFFFFF" d="M116.533,6.667h-7.785c-0.869,0-1.549,0.235-2.004,0.7c-0.486,0.486-0.723,1.217-0.717,2.167l0.051,4.868
				c0.016,1.872,0.965,2.866,2.758,2.866h8.031l0.391-2.354l-0.404,0.088c-0.256,0.055-0.648,0.119-1.049,0.119h-5.102
				c-0.24,0-0.344-0.055-0.344-0.402l-0.047-5.511c-0.01-0.164,0.027-0.282,0.072-0.331c0.055-0.053,0.164-0.066,0.256-0.066h5.104
				l1.434,0.165l-0.043-0.371l-0.363-1.938H116.533z"/>
		</g>
	</g>
	<g>
		<g>
			<path fill="#FFFFFF" d="M123.043,3.035h-4.301l0.094,0.352c0.148,0.626,0.211,1.198,0.217,1.964l0.094,9.674
				c0.012,0.748-0.045,1.246-0.188,1.899l-0.076,0.345h4.859l-0.09-0.352c-0.16-0.648-0.217-1.148-0.219-1.896l-0.061-5.812
				c0-0.216,0.037-0.3,0.066-0.331c0.047-0.044,0.15-0.066,0.307-0.066h3.119c0.291,0,0.377,0.06,0.389,0.405l0.051,5.808
				c0.008,0.748-0.041,1.246-0.188,1.899l-0.08,0.345h4.852l-0.082-0.352c-0.156-0.648-0.211-1.148-0.227-1.896l-0.049-5.466
				c-0.018-1.89-0.959-2.887-2.719-2.887h-4.48c-0.436,0-0.734,0.088-0.979,0.277c-0.012-1.032-0.037-3.91-0.037-3.91H123.043z"/>
		</g>
	</g>
	<g>
		<g>
			<path fill="#FFFFFF" d="M156.197,6.667h-3.137c-0.307,0-1.074,0.723-1.535,1.172c-0.012-0.069-0.037-1.172-0.037-1.172h-4.168
				l0.08,0.35c0.16,0.625,0.223,1.192,0.223,1.963l0.062,6.045c0.006,0.754-0.047,1.25-0.193,1.899l-0.076,0.345h4.855l-0.09-0.352
				c-0.152-0.648-0.209-1.148-0.221-1.896l-0.043-5.384c-0.006-0.218,0.033-0.299,0.059-0.334c0.049-0.04,0.154-0.064,0.309-0.064
				h1.627c0.893,0,1.588,0.064,2.242,0.207l0.346,0.075l-0.023-2.853H156.197z"/>
		</g>
	</g>
	<g>
		<path fill="#FFFFFF" d="M91.094,15.123h-6.551c-0.244,0-0.346-0.055-0.346-0.402c0,0-0.012-1.034-0.018-1.553
			c0.531,0,8.291,0,8.291,0L92.434,9.53c-0.014-1.87-0.973-2.863-2.762-2.863h-7.086c-0.869,0-1.543,0.235-2.004,0.7
			c-0.484,0.486-0.723,1.217-0.715,2.167l0.049,4.868c0.008,1.872,0.967,2.866,2.756,2.866h9.492l0.387-2.354l-0.404,0.088
			C91.885,15.058,91.492,15.123,91.094,15.123z M84.143,9.209c0-0.004,0-0.012,0-0.016c0-0.155,0.033-0.266,0.08-0.315
			c0.053-0.053,0.162-0.066,0.256-0.066h3.328c0.23,0,0.342,0.04,0.342,0.405c0,0,0.01,1.382,0.021,1.806c-0.467,0-3.549,0-4.002,0
			C84.156,10.604,84.143,9.209,84.143,9.209z"/>
		<path fill="#FFFFFF" d="M145.574,15.003c-0.256,0.055-0.646,0.119-1.049,0.119h-6.555c-0.238,0-0.336-0.055-0.346-0.402
			c0,0-0.006-1.034-0.012-1.553c0.531,0,8.287,0,8.287,0l-0.035-3.637c-0.014-1.875-0.973-2.863-2.754-2.863h-7.1
			c-0.867,0-1.537,0.235-2.002,0.7c-0.48,0.486-0.717,1.217-0.707,2.167l0.043,4.868c0.016,1.872,0.973,2.866,2.766,2.866h9.482
			l0.391-2.354L145.574,15.003z M137.582,9.209c0-0.004,0-0.012,0-0.016c0-0.155,0.027-0.266,0.07-0.315
			c0.062-0.053,0.174-0.066,0.256-0.066h3.328c0.232,0,0.35,0.04,0.35,0.405c0,0,0.006,1.382,0.012,1.806c-0.469,0-3.541,0-4.002,0
			C137.594,10.604,137.582,9.209,137.582,9.209z"/>
	</g>
	<g>
		<path fill="#FFFFFF" d="M60.457,6.676h2.07V4.745c0-2.121,0.928-3.071,2.869-3.071h6.096l0.133,0.868l0.256,1.599
			c-0.516-0.097-1.861-0.367-2.229-0.367h-2.154c-0.562,0-0.73,0.221-0.73,0.831v2.072h3.514l-0.811,2.046h-2.703v5.963
			c0,1.366,0.098,2.047,0.244,2.584h-4.727c0.143-0.537,0.242-1.218,0.242-2.584V8.722h-2.07V6.676z"/>
		<path fill="#FFFFFF" d="M77.6,14.685c0,1.366,0.105,2.047,0.244,2.584h-4.725c0.152-0.537,0.246-1.218,0.246-2.584V4.262
			c0-1.361-0.094-2.043-0.246-2.58h4.48V14.685z"/>
	</g>
	<g>
		<path fill-rule="evenodd" clip-rule="evenodd" fill="#FFFFFF" d="M30.54,21.079l0.144-0.74c-3.488-0.032-4.558-1.337-6.027-3.464
			L15.34,3.784c-0.018-0.022-0.596-0.688-0.596-0.688c-1.546-1.802-2.563-2.994-5.931-3.022L0.15,0L0,0.74
			C3.076,0.767,3.977,1.82,5.467,3.562L6.05,4.228c-0.017-0.018,9.296,13.063,9.296,13.063c1.571,2.29,2.802,3.68,6.518,3.712
			L30.54,21.079z M22.012,20.264c-3.483-0.03-4.562-1.339-6.026-3.465L6.667,3.707C6.643,3.689,6.079,3.022,6.079,3.022
			C5.255,2.076,4.588,1.303,3.643,0.771c2.45,0.021,5.026,0.044,5.026,0.044c3.079,0.028,3.985,1.079,5.474,2.822l0.58,0.667
			c-0.016-0.016,9.3,13.063,9.3,13.063c0.89,1.305,1.689,2.301,2.886,2.938C24.498,20.289,22.012,20.264,22.012,20.264z"/>
	</g>
	<g>
		<path fill-rule="evenodd" clip-rule="evenodd" fill="#FFFFFF" d="M45.142,21.206l0.153-0.742c-3.487-0.027-4.568-1.335-6.03-3.462
			c0-0.003-9.317-13.09-9.317-13.09c-0.021-0.023-0.595-0.688-0.595-0.688c-1.541-1.801-2.563-2.991-5.922-3.02l-8.674-0.076
			l-0.146,0.74c3.068,0.027,3.974,1.081,5.466,2.821l0.587,0.669c-0.023-0.02,9.285,13.062,9.285,13.062
			c1.583,2.285,2.803,3.68,6.533,3.709L45.142,21.206z M36.619,20.39c-3.49-0.029-4.558-1.336-6.026-3.464L21.274,3.834
			c-0.018-0.023-0.592-0.685-0.592-0.685c-0.811-0.951-1.488-1.719-2.429-2.252c2.452,0.02,5.029,0.042,5.029,0.042
			c3.075,0.031,3.978,1.083,5.463,2.823l0.589,0.668c-0.021-0.019,9.294,13.064,9.294,13.064c0.902,1.303,1.698,2.302,2.89,2.939
			C39.117,20.411,36.619,20.39,36.619,20.39z"/>
	</g>
	<g>
		<path fill-rule="evenodd" clip-rule="evenodd" fill="#FFFFFF" d="M59.486,21.31l0.15-0.744c-3.492-0.029-4.568-1.334-6.025-3.465
			L44.289,4.012c-0.023-0.02-0.592-0.687-0.592-0.687c-1.548-1.8-2.569-2.993-5.928-3.02l-8.674-0.074l-0.148,0.739
			c3.077,0.026,3.979,1.078,5.475,2.818l0.576,0.671c-0.013-0.019,9.3,13.061,9.3,13.061c1.567,2.288,2.798,3.679,6.52,3.713
			L59.486,21.31z M50.961,20.496c-3.487-0.035-4.562-1.34-6.03-3.471L35.618,3.938c-0.02-0.023-0.596-0.688-0.596-0.688
			C34.21,2.301,33.533,1.532,32.596,1c2.446,0.02,5.027,0.046,5.027,0.046c3.072,0.025,3.971,1.075,5.47,2.819l0.58,0.671
			c-0.023-0.019,9.293,13.062,9.293,13.062c0.898,1.3,1.699,2.303,2.896,2.939C53.451,20.513,50.961,20.496,50.961,20.496z"/>
	</g>
</g>
</svg>
